# xmcd
#
# Track frame offsets:
#	150
#	19437
#	39512
#	57147
#	76717
#	89377
#	107207
#	129612
#	143100
#	158442
#
# Disc length: 2250 seconds
#
# Revision: 5
# Processed by: cddbd v1.5.2PL0 Copyright (c) Steve Scherf et al.
# Submitted via: EZCDAudioConverter 6.0.7.1
#
DISCID=7808c80a
DTITLE=Wynonna Judd - Wynonna
DYEAR=1992
DGENRE=Country
TTITLE0=What It Takes
TTITLE1=She Is His Only Need
TTITLE2=I Saw The Light
TTITLE3=My Strongest Weakness
TTITLE4=When I Reach The Place I'm Goin'
TTITLE5=No One Else On Earth
TTITLE6=It's Never Easy To Say Goodbye
TTITLE7=A Little Bit Of Love (Goes a Long, Long Way)
TTITLE8=All Of That Love From Here
TTITLE9=Live With Jesus
EXTD=
EXTT0=
EXTT1=
EXTT2=
EXTT3=
EXTT4=
EXTT5=
EXTT6=
EXTT7=
EXTT8=
EXTT9=
PLAYORDER=
